<svg width="349" height="292" viewBox="0 0 349 292" fill="none" xmlns="http://www.w3.org/2000/svg">
<path d="M132.755 290.258C188.478 290.258 233.65 245.085 233.65 189.362C233.65 133.639 188.478 88.4668 132.755 88.4668C77.0319 88.4668 31.8594 133.639 31.8594 189.362C31.8594 245.085 77.0319 290.258 132.755 290.258Z" fill="#FFCCD6" stroke="white" stroke-width="3" stroke-miterlimit="10"/>
<path d="M82.832 248.622C171.304 203.634 182.725 147.264 182.725 147.264Z" fill="#21B8EB"/>
<path d="M82.832 248.622C171.304 203.634 182.725 147.264 182.725 147.264" stroke="white" stroke-width="3" stroke-miterlimit="10"/>
<path d="M185.155 246.077C94.5619 205.526 80.3633 149.812 80.3633 149.812Z" fill="#FFEC51"/>
<path d="M185.155 246.077C94.5619 205.526 80.3633 149.812 80.3633 149.812" stroke="white" stroke-width="3" stroke-miterlimit="10"/>
<path d="M19.7109 27.3818L69.8312 108.908" stroke="white" stroke-width="3" stroke-miterlimit="10"/>
<path d="M243.069 27.3818L192.949 108.908" stroke="white" stroke-width="3" stroke-miterlimit="10"/>
<path d="M15.1173 27.7737C22.2345 27.7737 28.0041 22.004 28.0041 14.8868C28.0041 7.76963 22.2345 2 15.1173 2C8.00008 2 2.23047 7.76963 2.23047 14.8868C2.23047 22.004 8.00008 27.7737 15.1173 27.7737Z" fill="#FFEC51" stroke="white" stroke-width="3" stroke-miterlimit="10"/>
<path d="M250.746 27.7737C257.863 27.7737 263.633 22.004 263.633 14.8868C263.633 7.76963 257.863 2 250.746 2C243.629 2 237.859 7.76963 237.859 14.8868C237.859 22.004 243.629 27.7737 250.746 27.7737Z" fill="#FFEC51" stroke="white" stroke-width="3" stroke-miterlimit="10"/>
<path d="M201.203 263.48C201.203 263.48 218.103 251.018 245.883 263.48C273.663 275.943 279.913 284.894 301.404 285.82C322.895 286.746 347.974 264.329 347.974 264.329" stroke="white" stroke-width="3" stroke-miterlimit="10"/>
</svg>
