<svg width="222" height="291" viewBox="0 0 222 291" fill="none" xmlns="http://www.w3.org/2000/svg">
<path d="M1.26953 182.194C159.48 101.772 179.872 1 179.872 1Z" fill="#FFEC51"/>
<path d="M1.26953 182.194C159.48 101.772 179.872 1 179.872 1" stroke="#1D1D1B" stroke-width="3" stroke-miterlimit="10"/>
<path d="M220.948 177.647C58.9567 105.169 33.5938 5.54395 33.5938 5.54395Z" fill="#FFCCD6"/>
<path d="M220.948 177.647C58.9567 105.169 33.5938 5.54395 33.5938 5.54395" stroke="#1D1D1B" stroke-width="3" stroke-miterlimit="10"/>
<path d="M26.6758 289C184.886 208.578 205.279 107.806 205.279 107.806Z" fill="#21B8EB"/>
<path d="M26.6758 289C184.886 208.578 205.279 107.806 205.279 107.806" stroke="#1D1D1B" stroke-width="3" stroke-miterlimit="10"/>
<path d="M209.651 284.453C47.6598 211.975 22.2969 112.351 22.2969 112.351Z" fill="#F1A7C5"/>
<path d="M209.651 284.453C47.6598 211.975 22.2969 112.351 22.2969 112.351" stroke="#1D1D1B" stroke-width="3" stroke-miterlimit="10"/>
</svg>
