<svg width="282" height="351" viewBox="0 0 282 351" fill="none" xmlns="http://www.w3.org/2000/svg">
<path d="M251.647 223.822C271.39 230.925 283.548 247.417 278.733 260.779C273.978 274.081 254.055 279.197 234.312 272.095" fill="#FFEC51"/>
<path d="M251.647 223.822C271.39 230.925 283.548 247.417 278.733 260.779C273.978 274.081 254.055 279.197 234.312 272.095" stroke="white" stroke-width="3" stroke-miterlimit="10"/>
<path d="M13.832 139.312C13.832 139.312 40.1953 119.871 83.5321 139.312C126.869 158.754 136.62 172.718 170.145 174.162C203.671 175.547 242.795 140.637 242.795 140.637" stroke="white" stroke-width="3" stroke-miterlimit="10"/>
<path d="M87.6221 109.103C87.6221 109.103 82.5662 102.241 87.6221 91.0459C92.678 79.8507 96.2894 77.2625 96.6505 68.5952C97.0117 59.9279 87.9832 49.7559 87.9832 49.7559" stroke="white" stroke-width="3" stroke-miterlimit="10"/>
<path d="M128.559 116.866C128.559 116.866 118.688 103.503 128.559 81.5943C138.43 59.6851 145.473 54.7496 146.195 37.776C146.917 20.8025 129.221 1 129.221 1" stroke="white" stroke-width="3" stroke-miterlimit="10"/>
<path d="M169.063 138.778C169.063 138.778 174.119 131.916 169.063 120.721C164.007 109.526 160.395 106.937 160.034 98.27C159.673 89.6027 168.702 79.4307 168.702 79.4307" stroke="white" stroke-width="3" stroke-miterlimit="10"/>
<path d="M254.414 191.801C254.414 278.715 197.956 349.197 128.316 349.197C58.6768 349.197 2.21875 278.715 2.21875 191.801" fill="#F1A7C5"/>
<path d="M254.414 191.801C254.414 278.715 197.956 349.197 128.316 349.197C58.6768 349.197 2.21875 278.715 2.21875 191.801" stroke="white" stroke-width="3" stroke-miterlimit="10"/>
</svg>
