<svg width="238" height="351" viewBox="0 0 238 351" fill="none" xmlns="http://www.w3.org/2000/svg">
<path d="M3.77734 75.1269C68.5004 42.2136 76.8487 1 76.8487 1Z" fill="#F1A7C5"/>
<path d="M3.77734 75.1269C68.5004 42.2136 76.8487 1 76.8487 1" stroke="white" stroke-width="3" stroke-miterlimit="10"/>
<path d="M78.6697 73.2542C12.3634 43.6033 2 2.82129 2 2.82129Z" fill="#F1A7C5"/>
<path d="M78.6697 73.2542C12.3634 43.6033 2 2.82129 2 2.82129" stroke="white" stroke-width="3" stroke-miterlimit="10"/>
<path d="M3.77734 190.419C68.5004 157.506 76.8487 116.244 76.8487 116.244Z" fill="#FFEC51"/>
<path d="M3.77734 190.419C68.5004 157.506 76.8487 116.244 76.8487 116.244" stroke="white" stroke-width="3" stroke-miterlimit="10"/>
<path d="M78.6697 188.551C12.3634 158.9 2 118.118 2 118.118Z" fill="#FFEC51"/>
<path d="M78.6697 188.551C12.3634 158.9 2 118.118 2 118.118" stroke="white" stroke-width="3" stroke-miterlimit="10"/>
<path d="M236.955 348.703C56.3153 316.797 43.457 238.544 43.457 238.544Z" fill="#FFCCD6"/>
<path d="M236.955 348.703C56.3153 316.797 43.457 238.544 43.457 238.544" stroke="white" stroke-width="3" stroke-miterlimit="10"/>
<path d="M64.4219 339.725C161.243 322.644 168.104 280.711 168.104 280.711Z" fill="#FFCCD6"/>
<path d="M64.4219 339.725C161.243 322.644 168.104 280.711 168.104 280.711" stroke="white" stroke-width="3" stroke-miterlimit="10"/>
<path d="M145.406 259.559C185.66 239.12 190.842 213.451 190.842 213.451Z" fill="#21B8EB"/>
<path d="M145.406 259.559C185.66 239.12 190.842 213.451 190.842 213.451" stroke="white" stroke-width="3" stroke-miterlimit="10"/>
<path d="M191.947 258.41C150.734 239.986 144.305 214.653 144.305 214.653Z" fill="#21B8EB"/>
<path d="M191.947 258.41C150.734 239.986 144.305 214.653 144.305 214.653" stroke="white" stroke-width="3" stroke-miterlimit="10"/>
</svg>
