<svg width="326" height="327" viewBox="0 0 326 327" fill="none" xmlns="http://www.w3.org/2000/svg">
<path d="M162.844 324.687C251.951 324.687 324.187 252.451 324.187 163.344C324.187 74.2361 251.951 2 162.844 2C73.7359 2 1.5 74.2361 1.5 163.344C1.5 252.451 73.7359 324.687 162.844 324.687Z" fill="#FFCCD6" stroke="#1D1D1B" stroke-width="3" stroke-miterlimit="10"/>
<path d="M145.039 84.1104C187.426 84.1104 221.854 103.669 221.854 127.732C221.854 151.856 187.488 171.353 145.039 171.353" fill="#FFEC51"/>
<path d="M145.039 84.1104C187.426 84.1104 221.854 103.669 221.854 127.732C221.854 151.856 187.488 171.353 145.039 171.353" stroke="#1D1D1B" stroke-width="3" stroke-miterlimit="10"/>
<path d="M103.516 244.097C150.407 142.108 120.915 84.1104 120.915 84.1104Z" fill="#21B8EB"/>
<path d="M103.516 244.097C150.407 142.108 120.915 84.1104 120.915 84.1104" stroke="#1D1D1B" stroke-width="3" stroke-miterlimit="10"/>
</svg>
