<svg width="354" height="324" viewBox="0 0 354 324" fill="none" xmlns="http://www.w3.org/2000/svg">
<path d="M157.698 321.569C243.541 321.569 313.131 251.98 313.131 166.137C313.131 80.2936 243.541 10.7041 157.698 10.7041C71.8551 10.7041 2.26562 80.2936 2.26562 166.137C2.26562 251.98 71.8551 321.569 157.698 321.569Z" fill="#FFEC51" stroke="#1D1D1B" stroke-width="3" stroke-miterlimit="10"/>
<path d="M352.241 1C350.576 104.542 248.995 182.823 145.453 174.621Z" fill="#21B8EB"/>
<path d="M352.241 1C350.576 104.542 248.995 182.823 145.453 174.621" stroke="#1D1D1B" stroke-width="3" stroke-miterlimit="10"/>
<path d="M222.128 105.572C179.095 170.895 133.98 174.878 133.98 174.878" stroke="#1D1D1B" stroke-width="3" stroke-miterlimit="10"/>
<path d="M235.205 223.196C178.916 168.929 133.98 174.991 133.98 174.991" stroke="#1D1D1B" stroke-width="3" stroke-miterlimit="10"/>
</svg>
