<svg width="197" height="291" viewBox="0 0 197 291" fill="none" xmlns="http://www.w3.org/2000/svg">
<path d="M2.97656 62.3355C56.5309 35.1018 63.4386 1 63.4386 1Z" fill="#F1A7C5"/>
<path d="M2.97656 62.3355C56.5309 35.1018 63.4386 1 63.4386 1" stroke="#1D1D1B" stroke-width="3" stroke-miterlimit="10"/>
<path d="M64.9473 60.7857C10.0829 36.2514 1.50781 2.50684 1.50781 2.50684Z" fill="#F1A7C5"/>
<path d="M64.9473 60.7857C10.0829 36.2514 1.50781 2.50684 1.50781 2.50684" stroke="#1D1D1B" stroke-width="3" stroke-miterlimit="10"/>
<path d="M2.97656 157.733C56.5309 130.499 63.4386 96.3574 63.4386 96.3574Z" fill="#FFEC51"/>
<path d="M2.97656 157.733C56.5309 130.499 63.4386 96.3574 63.4386 96.3574" stroke="#1D1D1B" stroke-width="3" stroke-miterlimit="10"/>
<path d="M64.9473 156.187C10.0829 131.653 1.50781 97.9082 1.50781 97.9082Z" fill="#FFEC51"/>
<path d="M64.9473 156.187C10.0829 131.653 1.50781 97.9082 1.50781 97.9082" stroke="#1D1D1B" stroke-width="3" stroke-miterlimit="10"/>
<path d="M195.92 288.703C46.4519 262.302 35.8125 197.553 35.8125 197.553Z" fill="#FFCCD6"/>
<path d="M195.92 288.703C46.4519 262.302 35.8125 197.553 35.8125 197.553" stroke="#1D1D1B" stroke-width="3" stroke-miterlimit="10"/>
<path d="M53.1602 281.274C133.273 267.141 138.95 232.443 138.95 232.443Z" fill="#FFCCD6"/>
<path d="M53.1602 281.274C133.273 267.141 138.95 232.443 138.95 232.443" stroke="#1D1D1B" stroke-width="3" stroke-miterlimit="10"/>
<path d="M120.172 214.941C153.48 198.029 157.767 176.79 157.767 176.79Z" fill="#21B8EB"/>
<path d="M120.172 214.941C153.48 198.029 157.767 176.79 157.767 176.79" stroke="#1D1D1B" stroke-width="3" stroke-miterlimit="10"/>
<path d="M158.679 213.99C124.577 198.746 119.258 177.784 119.258 177.784Z" fill="#21B8EB"/>
<path d="M158.679 213.99C124.577 198.746 119.258 177.784 119.258 177.784" stroke="#1D1D1B" stroke-width="3" stroke-miterlimit="10"/>
</svg>
