<svg width="371" height="310" viewBox="0 0 371 310" fill="none" xmlns="http://www.w3.org/2000/svg">
<path d="M140.676 308.258C199.879 308.258 247.872 260.265 247.872 201.062C247.872 141.859 199.879 93.8662 140.676 93.8662C81.4737 93.8662 33.4805 141.859 33.4805 201.062C33.4805 260.265 81.4737 308.258 140.676 308.258Z" fill="#FFCCD6" stroke="#1D1D1B" stroke-width="3" stroke-miterlimit="10"/>
<path d="M87.6367 264.023C181.633 216.225 193.767 156.335 193.767 156.335Z" fill="#21B8EB"/>
<path d="M87.6367 264.023C181.633 216.225 193.767 156.335 193.767 156.335" stroke="#1D1D1B" stroke-width="3" stroke-miterlimit="10"/>
<path d="M196.351 261.319C100.101 218.235 85.0156 159.042 85.0156 159.042Z" fill="#FFEC51"/>
<path d="M196.351 261.319C100.101 218.235 85.0156 159.042 85.0156 159.042" stroke="#1D1D1B" stroke-width="3" stroke-miterlimit="10"/>
<path d="M20.5742 28.9668L73.8242 115.584" stroke="#1D1D1B" stroke-width="3" stroke-miterlimit="10"/>
<path d="M257.878 28.9668L204.629 115.584" stroke="#1D1D1B" stroke-width="3" stroke-miterlimit="10"/>
<path d="M15.6915 29.3831C23.2531 29.3831 29.383 23.2532 29.383 15.6915C29.383 8.12991 23.2531 2 15.6915 2C8.12989 2 2 8.12991 2 15.6915C2 23.2532 8.12989 29.3831 15.6915 29.3831Z" fill="#FFEC51" stroke="#1D1D1B" stroke-width="3" stroke-miterlimit="10"/>
<path d="M266.035 29.3831C273.597 29.3831 279.727 23.2532 279.727 15.6915C279.727 8.12991 273.597 2 266.035 2C258.474 2 252.344 8.12991 252.344 15.6915C252.344 23.2532 258.474 29.3831 266.035 29.3831Z" fill="#FFEC51" stroke="#1D1D1B" stroke-width="3" stroke-miterlimit="10"/>
<path d="M213.398 279.808C213.398 279.808 231.353 266.567 260.868 279.808C290.383 293.048 297.024 302.558 319.856 303.542C342.689 304.526 369.335 280.709 369.335 280.709" stroke="#1D1D1B" stroke-width="3" stroke-miterlimit="10"/>
</svg>
