<svg width="397" height="280" viewBox="0 0 397 280" fill="none" xmlns="http://www.w3.org/2000/svg">
<path d="M389.185 205.382C352.931 188.87 347.391 166.466 347.391 166.466L389.185 205.382Z" fill="#F1A7C5"/>
<path d="M389.185 205.382C352.931 188.87 347.391 166.466 347.391 166.466" stroke="black" stroke-width="3" stroke-miterlimit="10"/>
<path d="M259.379 205.383C295.633 188.871 301.173 166.467 301.173 166.467L259.379 205.383Z" fill="#F1A7C5"/>
<path d="M259.379 205.383C295.633 188.871 301.173 166.467 301.173 166.467" stroke="black" stroke-width="3" stroke-miterlimit="10"/>
<path d="M383.702 278.161C319.449 216.433 324.364 165.025 324.364 165.025L383.702 278.161Z" fill="#FFEC51"/>
<path d="M383.702 278.161C319.449 216.433 324.364 165.025 324.364 165.025" stroke="black" stroke-width="3" stroke-miterlimit="10"/>
<path d="M264.863 278.161C329.116 216.433 324.201 165.025 324.201 165.025L264.863 278.161Z" fill="#FFEC51"/>
<path d="M264.863 278.161C329.116 216.433 324.201 165.025 324.201 165.025" stroke="black" stroke-width="3" stroke-miterlimit="10"/>
<path d="M324.281 144.03C363.501 144.03 395.296 112.236 395.296 73.0152C395.296 33.7946 363.501 2 324.281 2C285.06 2 253.266 33.7946 253.266 73.0152C253.266 112.236 285.06 144.03 324.281 144.03Z" fill="#F1A7C5" stroke="black" stroke-width="3" stroke-miterlimit="10"/>
<path d="M74.1324 147.317C113.353 147.317 145.148 115.522 145.148 76.3013C145.148 37.0807 113.353 5.28613 74.1324 5.28613C34.9118 5.28613 3.11719 37.0807 3.11719 76.3013C3.11719 115.522 34.9118 147.317 74.1324 147.317Z" fill="#21B8EB" stroke="black" stroke-width="3" stroke-miterlimit="10"/>
<path d="M20.3086 168.716C79.7007 225.772 75.1383 273.27 75.1383 273.27L20.3086 168.716Z" fill="#FFEC51"/>
<path d="M20.3086 168.716C79.7007 225.772 75.1383 273.27 75.1383 273.27" stroke="black" stroke-width="3" stroke-miterlimit="10"/>
<path d="M130.133 168.717C70.7412 225.773 75.3036 273.271 75.3036 273.271L130.133 168.717Z" fill="#FFEC51"/>
<path d="M130.133 168.717C70.7412 225.773 75.3036 273.271 75.3036 273.271" stroke="black" stroke-width="3" stroke-miterlimit="10"/>
<path d="M147.269 273.731C113.758 258.469 108.625 237.775 108.625 237.775L147.269 273.731Z" fill="#21B8EB"/>
<path d="M147.269 273.731C113.758 258.469 108.625 237.775 108.625 237.775" stroke="black" stroke-width="3" stroke-miterlimit="10"/>
<path d="M1 273.731C34.5116 258.469 39.6442 237.775 39.6442 237.775L1 273.731Z" fill="#21B8EB"/>
<path d="M1 273.731C34.5116 258.469 39.6442 237.775 39.6442 237.775" stroke="black" stroke-width="3" stroke-miterlimit="10"/>
</svg>
